<svg xmlns="http://www.w3.org/2000/svg" xmlns:xlink="http://www.w3.org/1999/xlink" viewBox="0 0 400 279.63"><defs><style>.a{fill:url(#a);}</style><linearGradient id="a" x1="-0.22" y1="198.93" x2="399.78" y2="198.93" gradientUnits="userSpaceOnUse"><stop offset="0" stop-color="#4797ec"/><stop offset="1" stop-color="#884beb"/></linearGradient></defs><title>Logo</title><path class="a" d="M396.24,212.35c-7,6.62-18.55,14-28.47,14.86A41.81,41.81,0,0,1,354.59,226a21.72,21.72,0,0,1-8.26-3.7,30.86,30.86,0,0,0-6.19-2.89c-7.83-3.3-18.15-6.19-24.31-1.62-4.54,3.29-3.7,8.67-3.3,14.85a47.28,47.28,0,0,1-1.24,21c-2.89,7.83-6.62,12-12.4,18.15-2.89,3.29-6.18,6.61-10.31,11.56a192.46,192.46,0,0,0-25.18,40.52,148.92,148.92,0,0,1-126.95,0,175.5,175.5,0,0,0-25.18-40.52c-4.13-4.95-7.43-8.27-10.32-11.56-5.78-6.19-9.88-10.32-12.37-18.15a41.78,41.78,0,0,1-1.24-21c.81-6.18,1.24-11.56-3.32-14.85-6.19-4.57-16.51-1.65-24.31,1.62a66.93,66.93,0,0,1-6.19,2.89,51.61,51.61,0,0,1-8.24,3.7,42.59,42.59,0,0,1-13.21,1.24c-9.5-.81-21.44-8.24-28.47-14.86-.4-.4-.4-.4-.4-.81s0-.43.4-.83C9.38,205.3,15.16,199.9,21,195c2.48-2.08,4.53-3.73,6.18-4.94A33.42,33.42,0,0,0,35,182.64a30.36,30.36,0,0,0,5.41-13.5,44.44,44.44,0,0,1,3.29-10.81,62.94,62.94,0,0,1,19.4-21.07l1.24-.81-7.43-12-1.65.83,1.65-1.24-5.19-7.45c-1.24-2.08-2.48-3.73-3.7-5.78a44.28,44.28,0,0,1,10.32,1.24,49.13,49.13,0,0,1,12.37,4.54l2.08,1.24,3.7-13.29a107.24,107.24,0,0,1,16.94,16.53,83.58,83.58,0,0,1,12,19.45l.43.84.81.4c13.1,3.73,23.82,9.51,31.17,17.34,1.24,1.65,2.86,2.89,4.11,4.54,2.08,2.49,4.94,5.78,9.5,10.32a50.63,50.63,0,0,0,4.95,4.54c-1.24,3.32-2,6.61-3.3,9.91-1.24,3.7-2.89,7.43-4.56,11.13s-3.7,7-5.4,10.8a40.41,40.41,0,0,0-4.14,12,41.59,41.59,0,0,0-.43,12.4,97.6,97.6,0,0,0,5.94,23.79,152.83,152.83,0,0,0,10.32,22.26c2,3.73,3.7,7,5.75,10.81a93.7,93.7,0,0,0,6.62,10.32,160.46,160.46,0,0,0,33,35.89,180.41,180.41,0,0,1-32.17-36.33c-2.08-3.29-4.13-7-6.21-10.32s-3.7-7-5.76-10.8a153.3,153.3,0,0,1-9.5-22.28,91.42,91.42,0,0,1-5-23.5,57.15,57.15,0,0,1,.84-12,40.5,40.5,0,0,1,4.11-11.16,116.12,116.12,0,0,0,5.78-10.8l4.94-11.13c1.65-3.73,2.89-7.83,4.13-11.56.81-2.49,1.65-4.94,2.49-7.43a69,69,0,0,1,6.59,15.26,64.94,64.94,0,0,0,3.32,9.48,84.18,84.18,0,0,1,3.3,9.51c.43.81.43,1.65.83,2.05,1.65,5.41,2.46,8.27,4.95,11.13,4.13,4.57,9.88,6.62,17.74,6.62A24,24,0,0,0,218.4,218c2.48-2.87,3.29-5.76,4.94-11.13.41-.81.41-1.65.81-2.05a63.79,63.79,0,0,1,3.33-9.51,81.73,81.73,0,0,0,3.29-9.48,68.72,68.72,0,0,1,6.62-15.27c.81,2.49,1.65,4.95,2.48,7.43,1.25,3.7,2.89,7.84,4.11,11.56l5,11.13a86,86,0,0,0,5.75,10.81,32.33,32.33,0,0,1,4.14,11.15,58.51,58.51,0,0,1,.81,12,94.91,94.91,0,0,1-4.95,23.5c-2.48,7.43-6.18,14.86-9.48,22.28a86.2,86.2,0,0,1-5.78,10.81c-2.05,3.73-4.13,7-6.18,10.32a169.36,169.36,0,0,1-32.2,36.27,182.34,182.34,0,0,0,33-35.89c2.48-3.33,4.56-7,6.61-10.32a84,84,0,0,0,5.78-10.81,182,182,0,0,0,10.24-22.26,97.09,97.09,0,0,0,5.76-23.93,61.35,61.35,0,0,0-.36-12.34,41.66,41.66,0,0,0-4.13-12c-2.05-3.7-3.7-7-5.4-10.8s-3.3-7.43-4.54-11.13a89.17,89.17,0,0,1-3.29-9.91,48.24,48.24,0,0,1,4.94-4.54c4.54-4.54,7.43-7.84,9.48-10.32,1.65-1.65,2.89-3.3,4.13-4.54a70.07,70.07,0,0,1,31.36-17.34l.84-.41.41-.83A118.37,118.37,0,0,1,308,121.19a90.65,90.65,0,0,1,16.83-16.61l3.7,13.21,2.06-1.25a41,41,0,0,1,12.53-4.45,44.57,44.57,0,0,1,10.29-1.24c-1.24,2.05-2.46,4.13-3.7,5.78l-4.94,7.42,1.64,1.25-1.64-.84-7.43,12,1.24.81A66.9,66.9,0,0,1,358,158.3a26.89,26.89,0,0,1,3.29,10.81,29.73,29.73,0,0,0,5.4,13.51,34,34,0,0,0,7.84,7.45c1.64,1.24,3.7,2.86,6.18,4.94,5.78,5,11.56,9.89,17.32,15.67a1.51,1.51,0,0,1,.43.84c-1.62,0-1.62.4-2,.81ZM157.33,150.07c-5.41-16.94-1.62-33,2.48-51.16a160,160,0,0,1,8.67-26.75c2.08,10.81,8.27,27.23,23.12,35.9a42.82,42.82,0,0,0,7.84,3.3h.83a41.89,41.89,0,0,0,7.81-3.38c14.86-8.67,20.64-25.17,23.12-35.9a157,157,0,0,1,8.67,26.83c4.14,18.55,7.84,34.25,2.49,51.16A64.12,64.12,0,0,1,235.77,164a89.31,89.31,0,0,0-9.48,20.64,88,88,0,0,1-3.33,9.48,92.93,92.93,0,0,0-3.29,9.92c-.41.81-.41,1.64-.81,2.48-1.65,4.94-2.08,7.43-4.13,9.48-3.3,3.7-8.27,5.4-14.86,5.78A19.86,19.86,0,0,1,184.61,216c-2.08-2.05-2.89-4.54-4.13-9.48-.44-.84-.44-1.65-.84-2.48a86.7,86.7,0,0,0-3.3-9.92c-1.24-2.89-2.05-6.18-3.29-9.48A100.52,100.52,0,0,0,163.54,164c-1.68-4.53-4.13-8.26-6.21-14m242,58.16a221.94,221.94,0,0,0-17.77-16.09c-2.49-2.05-4.54-3.7-6.19-4.95a37.71,37.71,0,0,1-7-6.62,28,28,0,0,1-4.95-12.39,34.4,34.4,0,0,0-3.71-11.57,66.36,66.36,0,0,0-18.93-21.48l5.71-9c1.65-2.49,3.3-4.95,4.95-7.84a95.22,95.22,0,0,0,4.95-8.68l1.24-2.49h-2.89a63.59,63.59,0,0,0-25.61,5.41l-3.71-14-2.05,1.65A94.31,94.31,0,0,0,303.53,119a103.1,103.1,0,0,0-12.39,19.39,68.59,68.59,0,0,0-32.24,18.18,53.39,53.39,0,0,0-4.54,5c-2.08,2.46-5,5.76-9.52,10.31l-3.3,3.32a81.17,81.17,0,0,1-2-8.27,66.42,66.42,0,0,0,7-14.44c5.79-18.28,2.17-34.35-2.49-53.44a152.46,152.46,0,0,0-11.57-32.45L230,61.2l-.81,4.14c-1.25,8.68-5.41,29.34-22.29,39.26a30.74,30.74,0,0,1-6.62,2.84,31.55,31.55,0,0,1-6.63-3C177.1,95,172.56,73.88,171.34,65.2l-.84-6.08L168,64.53a180.89,180.89,0,0,0-11.57,32.58c-4.54,18.93-8.11,35.16-2.46,53.3a67.42,67.42,0,0,0,7,14.45c-.81,2.89-1.24,5.78-2,8.27a26,26,0,0,1-3.33-3.3c-4.11-4.57-7-7.44-9.49-10.33-1.65-1.65-2.9-3.33-4.55-4.95-7.84-8.27-18.93-14.06-32.23-18.17A96.52,96.52,0,0,0,96.94,117,108.23,108.23,0,0,0,77.09,98l-2-1.67-3.71,14a57.57,57.57,0,0,0-11.17-3.76A55.33,55.33,0,0,0,45.83,105h-3l1.24,2.49,5,8.68c1.65,2.49,3.3,4.95,4.95,7.84l5.79,9.09a66.67,66.67,0,0,0-18.93,21.47,28.76,28.76,0,0,0-3.71,11.58,27.67,27.67,0,0,1-5,12.38,27,27,0,0,1-7,6.63c-1.73,1.24-3.65,2.89-6.35,5A216.49,216.49,0,0,0,1,206.31a5,5,0,0,0,0,6.6c7.44,7.44,19.82,15.28,30.56,15.71a51.75,51.75,0,0,0,14.47-1.24,53.42,53.42,0,0,0,9.14-3.92,57.28,57.28,0,0,1,5.41-2.9c9.52-4.13,17.36-4.94,21.09-2.05,2.49,2.05,2.49,5.41,1.62,11.14A45.08,45.08,0,0,0,85,252.37c2.9,8.68,7.44,13.22,13.23,19.41,2.86,3.06,6.16,6.74,10.3,11.17A164.45,164.45,0,0,1,133.29,323l.84.84a154.2,154.2,0,0,0,65.66,14.87,152.4,152.4,0,0,0,65.69-14.87l.83-.84A178.23,178.23,0,0,1,291.09,283c3.73-4.54,7.46-8.11,10.33-11.14,6.19-6.19,10.33-10.82,13.22-19.42a55.65,55.65,0,0,0,1.65-22.71c-.81-6.19-.81-9.52,1.65-11.14,3.71-2.49,11.14-1.65,21.07,2.05a20,20,0,0,1,5.41,2.9,31.4,31.4,0,0,0,9.08,3.7,51.57,51.57,0,0,0,14.44,1.24c10.82-.81,23.15-8.68,30.59-15.71a4.5,4.5,0,0,0,1.24-3.3c0-1-.38-1.3-.38-1.27Z" transform="translate(0.22 -59.12)"/></svg>