<svg xmlns="http://www.w3.org/2000/svg" viewBox="0 0 400 264.6"><defs><style>.a{fill:#8547bf;}</style></defs><title>Icon</title><path class="a" d="M134.3,332.29" transform="translate(0 -67.71)"/><path class="a" d="M200,332.29c-41.25,0-91.33-40.87-91.33-40.87-4.13-4.53-7.44-8.25-10.33-11.14-5.78-6.19-10.33-10.72-13.22-19.39-3.3-9.08-2.47-16.51-1.65-22.71.84-5.77.84-9.07-1.65-11.14-3.72-2.88-11.57-2.06-21.08,2.07-2.06.82-3.73,2.06-5.37,2.88a51.39,51.39,0,0,1-9.09,3.71,51.64,51.64,0,0,1-14.46,1.24c-10.74-.42-23.14-8.25-30.58-15.68a5,5,0,0,1,0-6.61A217,217,0,0,1,19,198.56c2.48-2.07,4.55-3.71,6.19-4.95,3.31-2.49,5-3.73,7-6.61,3.3-4.55,4.13-8.26,4.95-12.38a28.71,28.71,0,0,1,3.71-11.57,67.12,67.12,0,0,1,19-21.46l-5.78-9.07c-1.64-2.89-3.31-5.35-5-7.84-1.64-2.9-3.3-5.78-5-8.67L43,113.52h2.89a55.5,55.5,0,0,1,14.46,1.65,58.58,58.58,0,0,1,11.15,3.71l3.72-14,2.06,1.65a107.57,107.57,0,0,1,19.84,19,96.73,96.73,0,0,1,12.4,19.39c13.22,4.13,24.39,9.9,32.23,18.16,1.67,1.64,2.91,3.3,4.56,5,2.48,2.88,5.37,5.77,9.51,10.32a24.45,24.45,0,0,0,3.3,3.3c.83-2.48,1.25-5.37,2.07-8.25a67.62,67.62,0,0,1-7-14.45c-5.78-18.15-2.07-34.24,2.48-53.23a179.54,179.54,0,0,1,11.58-32.61l2.49-5.36.82,6.19c1.23,8.67,5.78,29.71,22.31,39.21a31.3,31.3,0,0,0,6.62,2.88,31.43,31.43,0,0,0,6.61-2.88c16.94-9.9,21.07-30.54,22.31-39.21l.79-4.15,2.49,5.37a153.78,153.78,0,0,1,11.57,32.6c4.56,19,8.27,35.08,2.49,53.24a67.29,67.29,0,0,1-7,14.44,82.83,82.83,0,0,0,2.06,8.26l3.31-3.31c4.56-4.54,7.44-7.83,9.51-10.31a53.11,53.11,0,0,1,4.55-4.95c7.86-8.26,18.6-14.45,32.24-18.16,3.71-7,7.44-13.62,12.39-19.39a96.16,96.16,0,0,1,19.84-19l2.07-1.64,3.71,14a58.67,58.67,0,0,1,11.16-3.71A58,58,0,0,1,355,115.57h2.89l-1.24,2.48c-1.25,2.91-3.31,5.79-5,8.68s-3.31,5.35-4.95,7.84L341,143.64a67,67,0,0,1,19,21.46c2.46,4.13,2.88,7.85,3.71,11.56.82,4.13,1.64,7.84,4.95,12.38a36.56,36.56,0,0,0,7,6.61c1.65,1.24,3.71,2.89,6.2,4.95a213.83,213.83,0,0,1,17.77,16.09h0c.26.2.37,1.26.37,1.26a4.72,4.72,0,0,1-1.24,3.31c-7.43,7-19.82,14.86-30.57,15.68a52.08,52.08,0,0,1-14.47-1.24c-4.13-.82-6.6-2.46-9.09-3.71a20.85,20.85,0,0,0-5.37-2.88c-9.93-3.71-17.37-4.55-21.09-2.07-2.47,1.65-2.47,5-1.64,11.14.42,6.2,1.24,14-1.65,22.71s-7,13.2-13.22,19.39c-2.89,2.89-5.63,7.62-10.33,11.14C234.5,334,200,332.29,200,332.29Z" transform="translate(0 -67.71)"/></svg>